<?xml version="1.0" encoding="UTF-8"?>
<svg xmlns="http://www.w3.org/2000/svg" width="461.24" height="69.7" viewBox="0 0 461.24 69.7">
  <title>dchs-log-wide-reverse</title>
  <g>
    <path d="M33.74,0A2.89,2.89,0,0,1,35.2.5a9.25,9.25,0,0,1,2.15,2.55A52.26,52.26,0,0,1,42,10.53a5.32,5.32,0,0,1,.34,1.55c.32,3.38-1.07,6.92-.75,10.27.22,2.3,1.21,4,2,6a50.81,50.81,0,0,1,1.84,5.81,26.73,26.73,0,0,1,.69,4.3c.1,1.31,0,2.66.23,3.88a95,95,0,0,0,3.35,14.14,14,14,0,0,0,2.69,5.46,10.92,10.92,0,0,0,3.22,2.61c.75.38,2,.55,2.53,1.2a3.37,3.37,0,0,1,.52,2.14c.06.84.11,1.21.11,1.8H39.15c0-2,.68-3.07,1.47-4.61,1.23-2.4,2.63-5.29,2.23-8.43a5.16,5.16,0,0,0-1.25-2.74l-.2-.21L41,53.28l-.14-.14c-1.92-1.8-4.7-2.74-5.62-5.51a2.52,2.52,0,0,1-.07-1.53,1.38,1.38,0,0,1,1.36-.7l.83-.14c.72-.5,1.84-.69,2.28-1.57s-.65-2.58-.71-3.57.29-1.82.3-2.78L39,36.24c-1.46,0-2.61.72-4.17.8-2.27.1-6.06-.42-7.67-1.72-.14-.11-.51-.27-.51-.46a1.2,1.2,0,0,0-.46.46c-.53,1.12.06,2.83-.17,4.1-.11.6-.52.84-.91,1.25a2.92,2.92,0,0,0-.56,2.94c.71,1.68,2.36.69,3.24,1.63.53.57.44,2.12.36,2.94-.4,4.17-5.61,3.8-7.07,7.07-1.29,2.88,1,5.67,1.49,8.21a7.4,7.4,0,0,1-.08,1.66c-2.6-.59-4.28-6.29-4-8.88a9.14,9.14,0,0,1,1.83-4.12,21.28,21.28,0,0,1,2.18-2.52,7.61,7.61,0,0,0,1.79-2.16c0-.11.24-.5,0-.5a3.93,3.93,0,0,0-2.23-.15c-3.94.85-5.82,6.41-6.56,9.86a9.45,9.45,0,0,0-.32,2.23,14.27,14.27,0,0,0,2.24,6.56C18.11,66.6,23,69.7,23,69.7H11.21c-.14-.32-.29-.48-1.5-1.8L7.46,65.7c-2.12-2.12-5-5.23-6.29-7.84A13.47,13.47,0,0,1,0,51.93a10.66,10.66,0,0,1,1.78-6.41,8.24,8.24,0,0,1,6.27-3.59l1.67-.28c.53-.18,1.37.19,1.2.82-.26,1-1.35,1.29-2,2C7.58,46,7.26,48.16,7,50.26c-.56,4.28.85,7.91,4.37,9.76.36.19,1.27.72,1.71.53s.24-1.18.25-1.55c.09-5.69-.14-11.49,1.19-16.5,1-3.71,4.26-6.58,6.66-9.55.81-1,1.8-1.83,2.49-2.89a9.9,9.9,0,0,0,1.46-5.36,8.07,8.07,0,0,0-.41-2.36c-1.51-4.43-7.94,1.63-9.23.35l-.38-.54c-.82-1.73-.61-4.07-1.22-5.92-.37-1.12-1.51-1.54-2-2.53A1.38,1.38,0,0,1,11.7,13c.26-1.4,2.51-1.43,3.71-1.43.93-.37,2.66-.14,3.75-.14a13.56,13.56,0,0,0,2.59-1.44c1.44-1.31,1.41-3.15,3.8-3.15l1.11-.14c.6-.37,1.22-.38,1.74-.9.69-.69.57-1.85,1.21-2.55s1.35-.17,1.9-.6C32.4,1.9,32.69.73,33.74,0Z" style="fill: #fff"></path>
    <g>
      <path d="M63.08,46.73V44.38l2-.68V30.88l-2-.81V27.83l6.21-.13h2.56a8.3,8.3,0,0,1,6.34,2.38q2.24,2.38,2.24,6.88A10.11,10.11,0,0,1,78,44.11a8.51,8.51,0,0,1-6.56,2.62Zm6.21-15.84V43.57h2.24a3.82,3.82,0,0,0,3.24-1.5q1.13-1.5,1.13-5a8.2,8.2,0,0,0-1.07-4.75,3.62,3.62,0,0,0-3.12-1.46Z" style="fill: #fff"></path>
      <path d="M96.76,46.54l-5.34.19L90.93,45l-.65.55a8.79,8.79,0,0,1-1.55.9,4.92,4.92,0,0,1-2.17.57,4.16,4.16,0,0,1-3.08-1.11,4.23,4.23,0,0,1-1.11-3.13q0-4.45,6.48-4.45h1.89V36.82a1.81,1.81,0,0,0-2.08-2,6.82,6.82,0,0,0-1.21.11,6,6,0,0,0-.89.22l-.27.08L85.88,37H83.45l-.19-4a18.91,18.91,0,0,1,5.86-1.08q3.08,0,4.35,1.2t1.27,4.14v6.67l2,.49Zm-10.5-4.18A1.42,1.42,0,0,0,87.85,44a2.85,2.85,0,0,0,1.36-.39,4.93,4.93,0,0,0,1.12-.8l.4-.38V40.6H89.2A4.54,4.54,0,0,0,87,41,1.45,1.45,0,0,0,86.26,42.36Z" style="fill: #fff"></path>
      <path d="M98.3,32.37l5.59-.22.19,1.86q.3-.24.78-.58a12.27,12.27,0,0,1,1.8-.92,6,6,0,0,1,2.39-.58,3.62,3.62,0,0,1,3,1.28,5.44,5.44,0,0,1,1,3.52v7.15q.35.11,1,.35l.89.32v2.16h-7.29V44.57l1.43-.67V37.36a2.36,2.36,0,0,0-.5-1.55,1.64,1.64,0,0,0-1.34-.61,3,3,0,0,0-1.47.39,4.24,4.24,0,0,0-1.07.77l-.35.38v7.15l1.4.67v2.16H98.3V44.57l2.08-.67V35.07l-2.08-.54Z" style="fill: #fff"></path>
      <path d="M129.72,40.25l-9,.08a4,4,0,0,0,1,2.59,3,3,0,0,0,2.25.92,8.09,8.09,0,0,0,2.13-.31,9.16,9.16,0,0,0,1.75-.63l.65-.32,1.16,2.16q-.3.24-.84.62a11.94,11.94,0,0,1-2.16,1,8.64,8.64,0,0,1-3.16.63,6.84,6.84,0,0,1-5.22-1.9,7.54,7.54,0,0,1-1.8-5.39A8.19,8.19,0,0,1,118.44,34a6.77,6.77,0,0,1,5.29-2.12,6,6,0,0,1,4.56,1.7,6.52,6.52,0,0,1,1.59,4.64ZM123.46,35a2.32,2.32,0,0,0-1.8.76,3.6,3.6,0,0,0-.85,2h4.86Q125.67,35,123.46,35Z" style="fill: #fff"></path>
      <path d="M150,31.18a9.42,9.42,0,0,0-3-.43q-4.45,0-4.45,6.61,0,6.21,4.59,6.21a7.13,7.13,0,0,0,2.47-.47,9.07,9.07,0,0,0,2-1l.67-.46,1.48,2.43-.32.31a11.16,11.16,0,0,1-.93.72A10.08,10.08,0,0,1,151,46a11.73,11.73,0,0,1-2,.7,8.85,8.85,0,0,1-2.36.32,8.25,8.25,0,0,1-6.38-2.44Q138,42.17,138,37.5a10.62,10.62,0,0,1,2.46-7.42,8.53,8.53,0,0,1,6.64-2.7,15.56,15.56,0,0,1,3,.31,15.24,15.24,0,0,1,2.4.63l.86.32-.13,5.13h-2.65Z" style="fill: #fff"></path>
      <path d="M162.79,31.88a6.53,6.53,0,0,1,5,1.9,7.62,7.62,0,0,1,1.77,5.38,8.08,8.08,0,0,1-2,5.72A6.82,6.82,0,0,1,162.38,47q-6.88,0-6.88-7.42a7.8,7.8,0,0,1,2-5.66A7.05,7.05,0,0,1,162.79,31.88Zm-.14,3.1a2.58,2.58,0,0,0-2.25,1,6.17,6.17,0,0,0-.72,3.45,6.53,6.53,0,0,0,.68,3.39,2.36,2.36,0,0,0,2.16,1.07,2.44,2.44,0,0,0,2.19-1.05,6.64,6.64,0,0,0,.7-3.54,6.3,6.3,0,0,0-.66-3.25A2.28,2.28,0,0,0,162.65,35Z" style="fill: #fff"></path>
      <path d="M172.93,42.17V35l-2-.49V32.37l6-.22v9.26a3,3,0,0,0,.35,1.63,1.29,1.29,0,0,0,1.16.53,3.72,3.72,0,0,0,1.55-.36,5.12,5.12,0,0,0,1.23-.74l.41-.38V35l-2-.49V32.37l6-.22V43.89l2.05.54v2.11l-5.51.19-.27-1.89-.26.23-.69.53a8.17,8.17,0,0,1-1.05.66,7.36,7.36,0,0,1-1.31.51,5.16,5.16,0,0,1-1.47.23A3.81,3.81,0,0,1,174,45.73,5.38,5.38,0,0,1,172.93,42.17Z" style="fill: #fff"></path>
      <path d="M189.16,32.37l5.59-.22.19,1.86q.3-.24.78-.58a12.27,12.27,0,0,1,1.8-.92,6,6,0,0,1,2.39-.58,3.62,3.62,0,0,1,3,1.28,5.44,5.44,0,0,1,1,3.52v7.15q.35.11,1,.35l.89.32v2.16h-7.29V44.57l1.43-.67V37.36a2.37,2.37,0,0,0-.5-1.55,1.64,1.64,0,0,0-1.34-.61,3,3,0,0,0-1.47.39,4.24,4.24,0,0,0-1.07.77l-.35.38v7.15l1.4.67v2.16h-7.48V44.57l2.08-.67V35.07l-2.08-.54Z" style="fill: #fff"></path>
      <path d="M213.31,47a3.25,3.25,0,0,1-3.08-1.44,10.8,10.8,0,0,1-.84-5v-5h-2.51V32.91l2.51-.35V28.83l4-.73v4.45h3.78v2.92h-3.78v6.1a4.25,4.25,0,0,0,.3,1.89,1.18,1.18,0,0,0,1.13.54,4.57,4.57,0,0,0,2.13-.62l1,1.94A8,8,0,0,1,213.31,47Z" style="fill: #fff"></path>
      <path d="M224.73,46.76l-4.8-11.88-1.43-.43V32.29l7.21-.14v2.29l-1.51.27,2.4,7.56,2.29-7.48-1.57-.35V32.29l7.26-.14v2.29l-1.67.35-4,11.07q-.59,1.59-1.12,2.69a14.4,14.4,0,0,1-1.39,2.27,5.77,5.77,0,0,1-2.08,1.78,6.07,6.07,0,0,1-2.75.61L219,53l.38-2.89h1.75a2.92,2.92,0,0,0,1.39-.34,3.08,3.08,0,0,0,1.08-1,10.66,10.66,0,0,0,.66-1Q224.46,47.35,224.73,46.76Z" style="fill: #fff"></path>
      <path d="M250.29,44.38v2.35H242V44.38l2-.68V30.88l-2-.81V27.83l8.29-.13v2.38l-2.08.81v4.45h7.07V30.88l-2.08-.81V27.83l8.29-.13v2.38l-2,.81V43.71l2,.68v2.35h-8.29V44.38l2.08-.68V38.5h-7.07v5.21Z" style="fill: #fff"></path>
      <path d="M264.84,42.17V35l-2-.49V32.37l6-.22v9.26a3,3,0,0,0,.35,1.63,1.29,1.29,0,0,0,1.16.53,3.72,3.72,0,0,0,1.55-.36,5.13,5.13,0,0,0,1.23-.74l.41-.38V35l-2-.49V32.37l6-.22V43.89l2.05.54v2.11l-5.51.19-.27-1.89-.26.23-.69.53a8.2,8.2,0,0,1-1.05.66,7.36,7.36,0,0,1-1.31.51A5.16,5.16,0,0,1,269,47a3.81,3.81,0,0,1-3.09-1.27A5.38,5.38,0,0,1,264.84,42.17Z" style="fill: #fff"></path>
      <path d="M304.2,36.74v7.15l1.84.67v2.16H298.8V44.57l1.43-.67V37.55a3,3,0,0,0-.36-1.67,1.34,1.34,0,0,0-1.2-.54,3.54,3.54,0,0,0-1.53.35,4,4,0,0,0-1.09.7l-.38.35v7.15l1.4.67v2.16h-6.8V44.57l1.4-.67V37.55a3.13,3.13,0,0,0-.35-1.69,1.32,1.32,0,0,0-1.19-.53,3.63,3.63,0,0,0-1.54.35,4.45,4.45,0,0,0-1.13.7l-.35.35v7.15l1.43.67v2.16h-7.48V44.57l2.08-.67V35l-2.05-.51V32.37l5.56-.22.19,1.92q.27-.24.73-.61a10.33,10.33,0,0,1,1.7-1,5.27,5.27,0,0,1,2.29-.61,3.66,3.66,0,0,1,3.67,2.32,11.5,11.5,0,0,1,.94-.84,8.43,8.43,0,0,1,1.7-1,5.41,5.41,0,0,1,2.24-.53,3.69,3.69,0,0,1,3.05,1.27A5.58,5.58,0,0,1,304.2,36.74Z" style="fill: #fff"></path>
      <path d="M322,46.54l-5.34.19L316.18,45l-.65.55a8.79,8.79,0,0,1-1.55.9,4.92,4.92,0,0,1-2.17.57,4.16,4.16,0,0,1-3.08-1.11,4.23,4.23,0,0,1-1.11-3.13q0-4.45,6.48-4.45H316V36.82a1.81,1.81,0,0,0-2.08-2,6.82,6.82,0,0,0-1.21.11,6,6,0,0,0-.89.22l-.27.08L311.14,37h-2.43l-.19-4a18.91,18.91,0,0,1,5.86-1.08q3.08,0,4.35,1.2T320,37.23v6.67l2,.49Zm-10.5-4.18A1.42,1.42,0,0,0,313.11,44a2.85,2.85,0,0,0,1.36-.39,4.93,4.93,0,0,0,1.12-.8l.4-.38V40.6h-1.54a4.54,4.54,0,0,0-2.25.42A1.45,1.45,0,0,0,311.51,42.36Z" style="fill: #fff"></path>
      <path d="M323.55,32.37l5.59-.22.19,1.86q.3-.24.78-.58a12.27,12.27,0,0,1,1.8-.92,6,6,0,0,1,2.39-.58,3.62,3.62,0,0,1,3,1.28,5.44,5.44,0,0,1,1,3.52v7.15q.35.11,1,.35l.89.32v2.16h-7.29V44.57l1.43-.67V37.36a2.37,2.37,0,0,0-.5-1.55,1.64,1.64,0,0,0-1.34-.61,3,3,0,0,0-1.47.39,4.24,4.24,0,0,0-1.07.77l-.35.38v7.15l1.4.67v2.16h-7.48V44.57l2.08-.67V35.07l-2.08-.54Z" style="fill: #fff"></path>
      <path d="M355,40.25l-9,.08a4,4,0,0,0,1,2.59,3,3,0,0,0,2.25.92,8.09,8.09,0,0,0,2.13-.31,9.18,9.18,0,0,0,1.75-.63l.65-.32,1.16,2.16q-.3.24-.84.62a11.92,11.92,0,0,1-2.16,1,8.63,8.63,0,0,1-3.16.63,6.84,6.84,0,0,1-5.22-1.9,7.54,7.54,0,0,1-1.8-5.39A8.19,8.19,0,0,1,343.69,34,6.77,6.77,0,0,1,349,31.88a6,6,0,0,1,4.56,1.7,6.52,6.52,0,0,1,1.59,4.64ZM348.71,35a2.31,2.31,0,0,0-1.79.76,3.6,3.6,0,0,0-.85,2h4.86Q350.92,35,348.71,35Z" style="fill: #fff"></path>
      <path d="M366.58,40.87l.4,2.27a5.64,5.64,0,0,0,2.65.57,4.35,4.35,0,0,0,2.32-.58,1.8,1.8,0,0,0,.94-1.61,1.59,1.59,0,0,0-.67-1.27,4.86,4.86,0,0,0-1.69-.84,20.76,20.76,0,0,1-2.2-.8,19.91,19.91,0,0,1-2.2-1.08,4.63,4.63,0,0,1-1.69-1.73,5.25,5.25,0,0,1-.68-2.71,5.07,5.07,0,0,1,1.9-4.22,7.77,7.77,0,0,1,5-1.5,15.87,15.87,0,0,1,2.83.27,17.72,17.72,0,0,1,2.29.54l.81.27-.14,4.91h-2.48l-.67-2.29a7.49,7.49,0,0,0-2.38-.4,3.56,3.56,0,0,0-2.12.54,1.64,1.64,0,0,0-.74,1.38,1.59,1.59,0,0,0,.68,1.27,5,5,0,0,0,1.69.85q1,.31,2.19.8a20.6,20.6,0,0,1,2.19,1.05,4.63,4.63,0,0,1,1.69,1.67,4.88,4.88,0,0,1,.67,2.59,5.61,5.61,0,0,1-2,4.6,8,8,0,0,1-5.25,1.66,17.14,17.14,0,0,1-2.86-.26,17.61,17.61,0,0,1-2.35-.53l-.81-.24V40.87Z" style="fill: #fff"></path>
      <path d="M386.74,31.88a6.53,6.53,0,0,1,5,1.9,7.62,7.62,0,0,1,1.77,5.38,8.08,8.08,0,0,1-2,5.72A6.82,6.82,0,0,1,386.34,47q-6.88,0-6.88-7.42a7.8,7.8,0,0,1,2-5.66A7.05,7.05,0,0,1,386.74,31.88Zm-.14,3.1a2.58,2.58,0,0,0-2.25,1,6.17,6.17,0,0,0-.72,3.45,6.53,6.53,0,0,0,.67,3.39,2.36,2.36,0,0,0,2.16,1.07,2.44,2.44,0,0,0,2.19-1.05,6.64,6.64,0,0,0,.7-3.54,6.31,6.31,0,0,0-.66-3.25A2.28,2.28,0,0,0,386.61,35Z" style="fill: #fff"></path>
      <path d="M406.77,42.41l1.35,2.29a8.6,8.6,0,0,1-5.8,2.29,6.79,6.79,0,0,1-5.17-1.94,7.52,7.52,0,0,1-1.85-5.4,8,8,0,0,1,2-5.7,7.14,7.14,0,0,1,5.47-2.08,11.74,11.74,0,0,1,2.21.23,13.09,13.09,0,0,1,1.86.47l.65.24-.13,4.4h-2.43l-.38-1.94a7.08,7.08,0,0,0-1.86-.22,2.84,2.84,0,0,0-2.33,1,4.74,4.74,0,0,0-.82,3,6.09,6.09,0,0,0,.85,3.51,2.88,2.88,0,0,0,2.52,1.21,5.38,5.38,0,0,0,1-.09,4.94,4.94,0,0,0,.94-.28q.46-.19.72-.32l.7-.4Z" style="fill: #fff"></path>
      <path d="M409.33,32.37l6.13-.22V43.89l1.89.67v2.16h-8V44.57l2.16-.67V35.07l-2.16-.54ZM411,27.7a2.34,2.34,0,0,1,.69-1.77,2.28,2.28,0,0,1,1.63-.66q2.27,0,2.27,2.43a2.37,2.37,0,0,1-.69,1.8,2.21,2.21,0,0,1-1.58.66,2.26,2.26,0,0,1-1.71-.63A2.53,2.53,0,0,1,411,27.7Z" style="fill: #fff"></path>
      <path d="M432.2,40.25l-9,.08a4,4,0,0,0,1,2.59,3,3,0,0,0,2.25.92,8.09,8.09,0,0,0,2.13-.31,9.18,9.18,0,0,0,1.75-.63l.65-.32,1.16,2.16q-.3.24-.84.62a11.92,11.92,0,0,1-2.16,1A8.63,8.63,0,0,1,426,47a6.84,6.84,0,0,1-5.22-1.9,7.54,7.54,0,0,1-1.8-5.39A8.19,8.19,0,0,1,420.91,34a6.77,6.77,0,0,1,5.29-2.12,6,6,0,0,1,4.56,1.7,6.52,6.52,0,0,1,1.59,4.64ZM425.93,35a2.31,2.31,0,0,0-1.79.76,3.6,3.6,0,0,0-.85,2h4.86Q428.15,35,425.93,35Z" style="fill: #fff"></path>
      <path d="M440,47a3.25,3.25,0,0,1-3.08-1.44,10.8,10.8,0,0,1-.84-5v-5h-2.51V32.91l2.51-.35V28.83l4-.73v4.45h3.78v2.92H440v6.1a4.25,4.25,0,0,0,.3,1.89,1.18,1.18,0,0,0,1.13.54,4.57,4.57,0,0,0,2.13-.62l1,1.94A8,8,0,0,1,440,47Z" style="fill: #fff"></path>
      <path d="M451.39,46.76l-4.8-11.88-1.43-.43V32.29l7.21-.14v2.29l-1.51.27,2.4,7.56,2.29-7.48L454,34.45V32.29l7.26-.14v2.29l-1.67.35-4,11.07q-.59,1.59-1.12,2.69a14.4,14.4,0,0,1-1.39,2.27A5.77,5.77,0,0,1,451,52.6a6.07,6.07,0,0,1-2.75.61L445.64,53,446,50.1h1.75a2.92,2.92,0,0,0,1.39-.34,3.08,3.08,0,0,0,1.08-1,10.66,10.66,0,0,0,.66-1Q451.12,47.35,451.39,46.76Z" style="fill: #fff"></path>
    </g>
  </g>
</svg>
